<?xml version="1.0" encoding="UTF-8" standalone="no"?>
<!-- Created with Inkscape (http://www.inkscape.org/) -->

<svg
   xmlns:dc="http://purl.org/dc/elements/1.1/"
   xmlns:cc="http://creativecommons.org/ns#"
   xmlns:rdf="http://www.w3.org/1999/02/22-rdf-syntax-ns#"
   xmlns:svg="http://www.w3.org/2000/svg"
   xmlns="http://www.w3.org/2000/svg"
   xmlns:sodipodi="http://sodipodi.sourceforge.net/DTD/sodipodi-0.dtd"
   xmlns:inkscape="http://www.inkscape.org/namespaces/inkscape"
   width="168.84499mm"
   height="187.37779mm"
   viewBox="0 0 168.84499 187.37779"
   version="1.1"
   id="svg23200"
   inkscape:version="0.92.1 r15371"
   sodipodi:docname="memo-note.svg">
  <defs
     id="defs23194" />
  <sodipodi:namedview
     id="base"
     pagecolor="#ffffff"
     bordercolor="#666666"
     borderopacity="1.0"
     inkscape:pageopacity="0.0"
     inkscape:pageshadow="2"
     inkscape:zoom="0.41027208"
     inkscape:cx="811.73675"
     inkscape:cy="231.53583"
     inkscape:document-units="mm"
     inkscape:current-layer="layer1"
     showgrid="false"
     fit-margin-top="0"
     fit-margin-left="0"
     fit-margin-right="0"
     fit-margin-bottom="0"
     inkscape:window-width="1366"
     inkscape:window-height="705"
     inkscape:window-x="-8"
     inkscape:window-y="-8"
     inkscape:window-maximized="1" />
  <metadata
     id="metadata23197">
    <rdf:RDF>
      <cc:Work
         rdf:about="">
        <dc:format>image/svg+xml</dc:format>
        <dc:type
           rdf:resource="http://purl.org/dc/dcmitype/StillImage" />
        <dc:title></dc:title>
      </cc:Work>
    </rdf:RDF>
  </metadata>
  <g
     inkscape:label="Layer 1"
     inkscape:groupmode="layer"
     id="layer1"
     transform="translate(289.27269,13.677718)">
    <path
       style="fill:#ffffb7;fill-opacity:1;fill-rule:evenodd;stroke:none;stroke-width:0.26458332px;stroke-linecap:butt;stroke-linejoin:miter;stroke-opacity:1"
       d="m -276.34774,79.327427 -8.41147,-45.75022 -3.1917,-23.9607399 -1.32178,-4.7613715 4.92379,-0.6154737 6.15474,-1.4361057 11.28369,-0.6154737 14.15589,-2.66705316 14.77137,-1.02578974 20.10548,-4.5134745 10.55757,1.0749074 v 0 0 l 8.93244,-1.0749074 15.38684,-4.1031591 9.23211,-1.436105 2.87221,0.410316 h 7.59084 l 6.04504,-2.530495 1.75097,5.6078637 6.77021,26.4653743 5.94958,31.184007 7.18053,46.160533 3.28252,16.00232 4.51348,18.87453 4.92379,10.46305 2.46189,3.07737 -3.07737,2.05158 -21.13127,7.38569 -24.61895,5.33411 -18.66937,2.05157 -21.74674,2.66706 -21.13127,2.87221 -28.51695,7.18053 -5.33411,-20.10548 -8.41147,-55.392642 z"
       id="path23781"
       inkscape:connector-curvature="0" />
    <path
       style="fill:#000000;stroke-width:1.00000012"
       d="m -594.37109,-51.695312 c -1.26501,0 -2.7717,0.47279 -3.34766,1.048828 -0.57592,0.575943 -3.25264,1.211706 -5.94922,1.414062 -6.64324,0.498561 -10.49475,1.527555 -13.01562,3.476563 -1.71927,1.329275 -4.23396,1.587942 -13.5,1.392578 -6.26295,-0.132053 -12.51368,-0.331776 -13.88868,-0.445313 -4.24168,-0.350279 -21.44192,1.272748 -22.5,2.123047 -1.97495,1.587179 -13.56743,3.231987 -19.22656,2.728516 -4.12985,-0.367419 -7.41304,0.0289 -11.53711,1.390625 -3.17038,1.046825 -6.77446,1.64988 -8.00976,1.339844 -1.39828,-0.35094 -4.10023,0.420941 -7.15821,2.046874 -3.18145,1.69161 -7.58202,2.918329 -12.49023,3.480469 -8.36391,0.95794 -10.38587,1.546436 -14.07813,4.097657 -1.60845,1.111383 -5.51087,1.967573 -10.94335,2.402343 -4.6441,0.37166 -10.14884,1.358889 -12.23438,2.19336 -2.81938,1.12809 -4.52458,1.261174 -6.64648,0.521484 -3.467,-1.20861 -7.64775,-0.506186 -11.66993,1.958984 l -3.00586,1.841797 -2.69531,-3.255859 c -2.4037,-2.90215 -2.92207,-3.117142 -4.77344,-1.982422 -1.5595,0.955839 -2.59196,0.997966 -4.14648,0.166016 -1.22888,-0.657668 -3.1494,-0.792602 -4.72656,-0.330079 -4.12453,1.20954 -16.43085,1.266668 -18.65821,0.08594 -2.51108,-1.33113 -8.5454,-0.985764 -14.87304,0.853516 -2.68037,0.779108 -5.247,1.185453 -5.70508,0.902343 -0.45808,-0.283099 -3.8904,0.201372 -7.62695,1.076172 -10.74123,2.514741 -16.34067,3.48763 -22.86719,3.97461 -3.34073,0.249259 -7.76957,1.162333 -9.83985,2.027343 -2.07021,0.86502 -6.29996,2.040131 -9.40039,2.613282 -3.10046,0.573149 -6.99851,2.014452 -8.66211,3.2011715 -2.25934,1.6117402 -4.66998,2.2027054 -9.52539,2.3359375 -3.57498,0.0981 -7.7375,0.4867143 -9.25,0.8652344 -1.85075,0.4631701 -2.75,0.2971274 -2.75,-0.5078125 0,-0.833991 -0.98379,-0.9713014 -3.25,-0.4570313 -1.78752,0.405639 -4.84971,0.6518159 -6.80664,0.5488282 -1.95688,-0.1029801 -5.28109,0.5342627 -7.38671,1.4140624 -3.06252,1.2796003 -5.75331,1.4646914 -13.44336,0.9257813 -9.01894,-0.63203 -9.79084,-0.5333963 -12.48243,1.5957031 -2.22183,1.75749009 -3.25084,2.02934437 -4.56445,1.2089844 -1.18537,-0.7403308 -2.25958,-0.7441382 -3.56836,-0.011719 -1.03003,0.5764403 -3.40993,0.99052199 -5.28711,0.91992192 -1.87718,-0.07058 -4.69469,0.53535317 -6.26172,1.34570313 -1.66734,0.86220005 -5.59355,1.47265625 -9.46484,1.47265625 -3.63848,0 -7.47232,0.4600543 -8.52151,1.0214844 -3.0187,1.6155799 -11.719,2.9932992 -19.8808,3.1484375 -4.1281,0.07846 -9.9987,0.8979823 -13.045,1.8203125 -3.4941,1.0579298 -7.5681,1.51492 -11.0371,1.2382812 -9.1163,-0.7270102 -11.9594,-0.4483341 -15.8144,1.5468751 -6.0358,3.1239 -12.5839,4.339092 -24.6856,4.583984 -8.2513,0.166971 -9.5,0.782147 -9.5,4.685547 0,3.804961 2.1882,11.955077 3.209,11.955079 1.101,0 0.9951,-6.750681 -0.1387,-8.869141 -1.7021,-3.18048 0.3655,-4.526988 7.1153,-4.636719 3.4738,-0.05648 7.8894,-0.616964 9.8144,-1.246094 11.894,-3.88716 21.6641,-5.886218 24.9903,-5.111328 4.4485,1.03637 15.441,0.03824 20.0019,-1.816406 1.9204,-0.7809001 5.9704,-1.350725 9,-1.2656252 7.7016,0.2162699 18.7162,-1.0168125 23.79299,-2.6640625 2.35669,-0.7646899 6.26555,-1.390625 8.68555,-1.390625 2.41995,0 5.66652,-0.4877475 7.21484,-1.0859375 2.97774,-1.1504501 7.53722,-1.9442329 13.31445,-2.3144531 1.92499,-0.12336 4.76809,-0.7588794 6.31641,-1.4121094 1.54832,-0.65321996 7.31411,-1.1875 12.81445,-1.1875 5.50035,0 10.75923,-0.3961694 11.68555,-0.8808594 0.92636,-0.4847 8.75877,-1.1062198 17.40625,-1.3808593 11.9938,-0.3809101 17.21149,-0.9791443 22,-2.5214844 19.61352,-6.3173402 23.51698,-7.2502502 30.27734,-7.2402342 3.84998,0.0056 10.82499,-0.907347 15.5,-2.029297 4.67502,-1.12195 9.62497,-1.954348 11,-1.849609 1.375,0.104729 3.17501,-0.04872 4,-0.339844 7.37205,-2.60136 17.7481,-3.677682 19.41211,-2.013672 1.36698,1.36698 12.99487,1.014455 15.97461,-0.484375 2.33673,-1.17538 3.32441,-1.217666 5.1836,-0.222656 1.26296,0.67597 2.97183,0.969692 3.79883,0.652344 0.82693,-0.31735 2.61526,0.297917 3.9746,1.367187 3.01202,2.36926 4.81189,2.433686 8.90625,0.316406 2.38644,-1.234078 4.75965,-1.493432 9.80665,-1.070312 4.43427,0.37176 7.47606,0.13432 9.10156,-0.708984 1.34264,-0.69657 5.11969,-1.565994 8.39258,-1.933594 3.27288,-0.36759 6.62418,-0.816445 7.44921,-0.996094 4.91664,-1.07063 11.03153,-3.057615 14.56641,-4.734375 2.23616,-1.06071 5.84357,-1.929687 8.01563,-1.929687 2.37127,-1e-6 6.45198,-1.220861 10.21484,-3.056641 3.63836,-1.77505 7.04756,-2.809377 8.12695,-2.466797 1.02252,0.32453 3.81918,-0.119898 6.2168,-0.986328 2.72984,-0.9865 8.47092,-1.671092 15.35937,-1.832031 8.02167,-0.18741 12.08304,-0.746041 15,-2.0625 3.39633,-1.532792 7.32029,-1.845457 26,-2.072266 20.25831,-0.245979 22.43544,-0.447395 27.5,-2.541016 3.02502,-1.250498 6.75333,-2.199479 8.28321,-2.109375 1.52984,0.09014 3.68371,-0.319624 4.78711,-0.910156 2.37668,-1.271958 5.92968,-0.378687 5.92968,1.490234 0,1.530233 1.93255,8.014035 6.56836,22.046876 4.35946,13.1962953 13.42519,44.813219 14.48047,50.5 0.45929,2.474994 2.38377,10.575 4.27735,18 1.89362,7.424996 4.20078,17.999997 5.12695,23.5 1.52508,9.056441 2.84122,15.657929 7.07422,35.5 1.25057,5.86209 5.26025,28.81518 7.51172,43 1.18802,7.48487 4.51215,24.60333 5.72851,29.5 0.54652,2.2 1.50811,7.15 2.13672,11 3.66928,22.47353 5.03937,31.75149 5.61133,38 0.3524,3.85 1.4887,11.49999 2.52539,17 1.86482,9.89358 4.29506,25.7403 7.51367,49 0.91329,6.6 2.03129,13.35 2.48438,15 0.45305,1.65 1.10282,5.475 1.44336,8.5 0.34068,3.025 1.29344,9.1 2.11718,13.5 0.82375,4.4 1.91995,10.24999 2.43555,13 0.51564,2.75 2.27777,14 3.91797,25 2.65655,17.81599 7.53127,43.82392 10.02734,53.5 0.49656,1.92502 1.90316,7.77499 3.125,13 1.22185,5.22501 3.5236,14.22503 5.11524,20 1.59167,5.775 4.17445,15.22503 5.74023,21 1.56582,5.775 3.30307,11.85001 3.85938,13.5 0.55627,1.64999 2.2263,7.04999 3.71093,12 2.36973,7.90099 5.1924,14.75952 11.30469,27.45703 2.30325,4.78469 5.72009,10.02795 8.67383,13.31055 3.08803,3.43188 3.16355,5.51502 0.24023,6.64453 -1.23753,0.47807 -4.27501,1.65117 -6.75,2.60547 -2.47502,0.95429 -5.84997,2.33688 -7.5,3.07226 -8.5296,3.8016 -12.96286,5.41016 -14.90429,5.41016 -1.18269,0 -3.03821,0.62025 -4.12305,1.37695 -2.50095,1.74463 -19.93512,8.75282 -28.47266,11.44531 -3.57498,1.12744 -10.24092,3.24877 -14.81445,4.71485 -4.57357,1.46623 -8.55228,2.43013 -8.8418,2.14062 -0.28943,-0.2894 -2.39851,0.27016 -4.68554,1.24414 -2.28703,0.9741 -7.25362,2.08446 -11.03711,2.4668 -3.7835,0.38237 -8.1475,1.34995 -9.69922,2.15234 -1.55169,0.80243 -4.30609,1.45899 -6.12109,1.45899 -3.89394,0 -14.44502,2.2065 -20.80079,4.34961 -2.47498,0.83452 -8.09998,2.19564 -12.5,3.02343 -25.94853,4.88213 -43.00213,7.63992 -50.5,8.16993 -1.92498,0.1361 -7.09998,0.52501 -11.5,0.86328 -4.40001,0.33842 -12.66362,0.84859 -18.36523,1.13281 -5.70157,0.28422 -11.10157,0.90211 -12,1.375 -0.89839,0.47289 -5.45979,1.16193 -10.13477,1.5293 -24.10752,1.8946 -31.24498,2.59042 -32.1289,3.13672 -1.96479,1.21432 -18.36158,3.74209 -57.8711,8.91796 -6.87499,0.90063 -16.54999,2.32713 -21.5,3.16993 -4.94997,0.84291 -10.80001,1.6852 -13,1.87304 -10.48543,0.89439 -13.73014,1.3442 -23.5,3.25782 -5.775,1.13109 -14.55002,2.8012 -19.5,3.71093 -4.95001,0.90958 -12.59998,2.45592 -17,3.4375 -4.40001,0.98162 -11.14998,2.36406 -15,3.07227 -3.85001,0.70821 -7.675,1.63614 -8.5,2.06055 -0.82499,0.4244 -4.87498,1.53278 -9,2.46289 -4.12497,0.92999 -8.76046,2.33635 -10.30273,3.12695 -1.54231,0.79045 -3.5686,1.30837 -4.50195,1.15039 -2.06147,-0.3493 -17.56803,4.51598 -25.33008,7.94727 -3.09986,1.37041 -6.10178,2.20463 -6.66992,1.85351 -0.56814,-0.35108 -1.52137,-2.91974 -2.11914,-5.70703 -0.59777,-2.78733 -1.53025,-5.8954 -2.07227,-6.9082 -0.54202,-1.01273 -1.64384,-4.24133 -2.44726,-7.17383 -0.80349,-2.9325 -2.19368,-7.80705 -3.08985,-10.83203 -5.60031,-18.90403 -13.59793,-59.6666 -16.48043,-83.9961 -0.5537,-4.67312 -1.2364,-9.22161 -1.5176,-10.10742 -0.7215,-2.27297 -5.0542,-30.53768 -6.4219,-41.89648 -0.6292,-5.22501 -1.5921,-12.07741 -2.1406,-15.22852 -0.5485,-3.15099 -1.4034,-9.00099 -1.8985,-13 -0.495,-3.99889 -1.8551,-13.57149 -3.0234,-21.27148 -1.1683,-7.70003 -2.7233,-18.04999 -3.4551,-23 -1.3168,-8.90703 -2.3467,-14.94531 -5.0312,-29.5 -2.0555,-11.1439 -4.3262,-24.83983 -5.0567,-30.5 -0.7281,-5.64191 -3.3894,-21.40853 -6.5,-38.5 -1.1511,-6.325 -2.4804,-14.2 -2.9531,-17.5 -0.4727,-3.3 -1.5552,-9.375 -2.4062,-13.5 -0.8511,-4.125 -1.9783,-9.75 -2.5039,-12.5 -0.5257,-2.75 -1.6569,-8.6 -2.5137,-13 -0.8568,-4.4 -2.205,-11.60001 -2.9961,-16 -0.7911,-4.4 -2.5708,-13.4 -3.9551,-20 -1.3842,-6.6 -4.1328,-20.55 -6.1074,-31 -1.9746,-10.45 -4.0226,-21.02501 -4.5508,-23.5 -1.8427,-8.63389 -3.9028,-20.60385 -6.0254,-35 -1.1759,-7.975 -2.2625,-14.63176 -2.414,-14.79492 -1.0401,-1.12048 -1.3634,7.71197 -0.4903,13.39648 0.583,3.79499 1.4918,10.03032 2.0176,13.85742 0.5258,3.8271 1.1705,7.6521 1.4336,8.5 0.2632,0.8479 1.5899,7.84102 2.9473,15.54102 2.3365,13.25398 4.1721,23.02403 6.6699,35.5 4.1395,20.67677 5.2755,26.52073 6.9512,35.75 0.5741,3.16249 2.3963,12.725 4.0507,21.25 1.6545,8.525 3.6375,19.325 4.4063,24 0.7689,4.675 2.3407,13.675 3.4922,20 1.1514,6.325 2.7234,15.325 3.4941,20 0.7707,4.675 2.103,12.325 2.959,17 0.8559,4.675 2.0111,11.65 2.5684,15.5 1.6968,11.7222 6.9158,43.52459 8.4961,51.77148 0.8188,4.2737 1.4911,9.2237 1.4941,11 0,1.7763 0.4587,4.85871 1.0117,6.84961 0.553,1.99102 1.4421,6.71598 1.9766,10.5 0.5344,3.7841 1.6446,11.3789 2.4668,16.87891 3.6317,24.29631 4.6542,31.77378 5.9922,43.79687 0.7832,7.03771 1.9283,15.36269 2.5429,18.5 2.3992,12.24718 3.0024,15.91803 3.5703,21.70313 0.324,3.29998 1.226,9.37502 2.0039,13.5 0.778,4.12501 1.6051,9.52501 1.8379,12 1.0904,11.59873 10.47351,53.59446 14.57426,65.22656 1.11001,3.1488 2.0224,6.29878 2.02539,7 0.003,0.70129 0.63082,2.47577 1.39648,3.94336 0.76566,1.46748 1.69072,4.42842 2.05469,6.58203 0.36385,2.1535 1.50314,5.29973 2.53125,6.99024 2.12156,3.48863 0.16184,3.79098 18.01172,-2.77149 4.67501,-1.7187 10.07501,-3.56271 12,-4.0957 1.92502,-0.5331 4.4,-1.36083 5.5,-1.83985 2.9817,-1.29838 17.77694,-5.03308 28,-7.06836 4.95001,-0.98562 10.57497,-2.26481 12.5,-2.84179 4.74758,-1.42292 23.89987,-5.02404 32.5,-6.11133 3.85001,-0.4868 9.25001,-1.36724 12,-1.95703 7.76432,-1.66553 6.7222,-1.50507 39.5,-6.09375 7.97499,-1.11644 15.175,-2.21741 16,-2.44531 0.82499,-0.22799 4.89732,-0.67106 9.04883,-0.98438 4.15147,-0.31351 8.65146,-0.7997 10,-1.08203 1.34853,-0.28241 5.82615,-0.91913 9.95117,-1.41406 4.12497,-0.49478 11.77503,-1.57744 17,-2.40625 23.4432,-3.71879 40.24677,-5.72067 67.5,-8.03907 16.70959,-1.42151 42.5201,-4.63148 54,-6.71679 3.29998,-0.59951 11.4,-1.90498 18,-2.90039 6.6,-0.99538 20.99998,-3.8762 32,-6.40039 10.99997,-2.52424 22.92498,-5.05404 26.5,-5.62305 3.57498,-0.56901 9.19998,-1.88864 12.5,-2.93164 3.29998,-1.04311 8.69998,-2.63011 12,-3.52734 14.69726,-3.9964 26.96024,-8.07216 36,-11.96485 1.64999,-0.71059 4.57501,-1.83977 6.5,-2.50976 3.9428,-1.37231 4.25837,-1.49134 16,-6.05274 17.29413,-6.7183 20.52643,-8.57616 24.65625,-14.17383 2.98163,-4.0433 2.9693,-5.79101 -0.0391,-5.79101 -3.62661,0 -7.55976,-5.67121 -16.78321,-24.20703 -2.10969,-4.2398 -3.83594,-8.30401 -3.83594,-9.0293 0,-0.72533 -0.60794,-2.2061 -1.35156,-3.29102 -0.74362,-1.08487 -2.11025,-5.34768 -3.03711,-9.47265 -1.73321,-7.71383 -4.73459,-18.45167 -7.12695,-25.5 -0.74668,-2.19999 -2.54415,-8.725 -3.99609,-14.5 -1.45195,-5.77497 -3.27209,-11.85001 -4.04493,-13.5 -0.7728,-1.64999 -2.11581,-6.99666 -2.98242,-11.88281 -0.86657,-4.8861 -2.19208,-10.73617 -2.94726,-13 -0.75519,-2.26383 -1.65248,-5.91721 -1.99414,-8.11719 -0.34175,-2.19999 -1.277,-6.92499 -2.07618,-10.5 -0.79918,-3.57498 -2.37053,-11.675 -3.49218,-18 -1.12162,-6.32499 -2.45615,-13.525 -2.9668,-16 -0.51061,-2.475 -1.86894,-10.8 -3.01758,-18.5 -1.14867,-7.7 -2.97523,-18.79057 -4.05859,-24.64649 -1.92658,-10.41349 -4.56456,-27.32218 -7.39063,-47.35351 -0.77593,-5.50001 -2.29463,-15.4 -3.37304,-22 -1.07845,-6.6 -2.68093,-17.625 -3.5625,-24.5 -0.88154,-6.875 -2.03391,-14.52501 -2.56055,-17 -0.52664,-2.475 -1.4413,-7.425 -2.03125,-11 -0.99288,-6.01718 -4.66045,-24.44431 -6.9668,-35 -1.19909,-5.4881 -5.99158,-32.60093 -6.98242,-39.5 -0.92939,-6.47134 -6.84892,-36.953424 -8.05859,-41.5 -0.51213,-1.924997 -1.84331,-8.675005 -2.95899,-15 -1.11568,-6.324998 -2.91427,-15.100005 -3.99805,-19.5 -1.08375,-4.399998 -2.93642,-12.050006 -4.11718,-17 -2.79825,-11.730601 -7.45647,-28.0794648 -13.81836,-48.5 -2.76628,-8.879231 -3.9727,-12.664647 -7.64258,-24 -0.8013,-2.474998 -1.45416,-5.512506 -1.45117,-6.75 0.004,-1.682593 -0.57494,-2.25 -2.29492,-2.25 z m -493.94731,88.041015 c -0.1472,-0.01959 -0.2938,0.07309 -0.4511,0.230469 -1.0306,1.03052 -0.6962,4.694669 1.7578,19.25 1.6671,9.88823 3.4632,21.803516 3.9902,26.478516 0.5271,4.674993 1.7427,12.999985 2.7031,18.500002 1.6097,9.21758 1.7709,9.61961 2.0567,5.12109 0.2902,-4.56827 -1.7867,-25.227007 -3.7832,-37.621092 -4.2298,-26.258295 -5.243,-31.821828 -6.2735,-31.958985 z"
       transform="scale(0.26458333)"
       id="path23756"
       inkscape:connector-curvature="0"
       sodipodi:nodetypes="ccccsccsssccscccccccccsccsccccssscccscccccscccccssccccccccscscscsscsccsccccscccccscscscscccssccccccccssccccccccccccccccscccccccsccccscccccccccscccccccccccccccsscccsccsscsccccscscccccscccccccsccccccccccccccccsccccccccccccccccscsccccccccccccccccsccccscccccsccccccscc" />
  </g>
</svg>
